<?xml version="1.0" encoding="UTF-8"?>
<!DOCTYPE svg PUBLIC "-//W3C//DTD SVG 1.1//EN" "http://www.w3.org/Graphics/SVG/1.1/DTD/svg11.dtd">
<!-- Creator: CorelDRAW X8 -->
<svg xmlns="http://www.w3.org/2000/svg" xml:space="preserve" width="79.8977mm" height="49.5786mm" version="1.1" style="shape-rendering:geometricPrecision; text-rendering:geometricPrecision; image-rendering:optimizeQuality; fill-rule:evenodd; clip-rule:evenodd"
viewBox="0 0 1684 1045"
 xmlns:xlink="http://www.w3.org/1999/xlink">
 <defs>
  <style type="text/css">
   <![CDATA[
    .str4 {stroke:#136C8E;stroke-width:10.5376}
    .str1 {stroke:#136C8E;stroke-width:8.43009}
    .str3 {stroke:#136C8E;stroke-width:6.32257}
    .str2 {stroke:#136C8E;stroke-width:2.10752}
    .str0 {stroke:#136C8E;stroke-width:1.60593}
    .fil2 {fill:none}
    .fil1 {fill:#136C8E}
    .fil0 {fill:#136C8E;fill-rule:nonzero}
   ]]>
  </style>
 </defs>
 <g id="Camada_x0020_1">
  <metadata id="CorelCorpID_0Corel-Layer"/>
  <path class="fil0 str0" d="M1 901c36,-83 99,-204 171,-260 15,-15 27,-27 37,-32 10,-8 23,-6 30,-2l-8 11c-3,-4 -8,-8 -17,-3 -11,5 -23,15 -38,30l0 0c-28,24 -56,58 -85,103 -29,44 -61,115 -90,179l0 -26z"/>
  <path class="fil0 str0" d="M272 583c-14,18 -21,39 -21,61 0,21 7,45 20,70 37,5 68,5 95,2 27,-4 50,-12 67,-24l2 3c-19,13 -40,23 -68,27 -28,4 -61,3 -98,-2l-1 0 -1 -2c-15,-26 -22,-51 -22,-74 0,-24 7,-45 22,-65l5 4z"/>
  <path class="fil0 str0" d="M266 595c-58,35 -117,109 -166,211l6 -17c44,-115 100,-166 154,-203l6 9z"/>
  <path class="fil0 str0" d="M226 913c-27,7 -47,7 -60,-1 -14,-8 -21,-23 -21,-46l10 0c0,19 5,31 16,37 11,6 29,6 52,0l3 10z"/>
  <path class="fil0 str0" d="M145 866c0,-24 9,-53 26,-88 16,-35 41,-76 74,-122l7 7c-32,46 -55,85 -72,119 -16,34 -24,62 -25,84l-10 0z"/>
  <path class="fil0 str0" d="M262 27c250,-80 389,27 399,274l0 1c2,44 9,100 21,168 13,68 33,157 56,250l-12 -14c-24,-93 -41,-165 -54,-234 -34,-183 9,-409 -216,-458 -57,-12 -120,-4 -190,23l-4 -10z"/>
  <path class="fil0 str0" d="M473 28c20,9 38,16 51,30 12,14 21,31 27,51l0 0c2,9 5,19 7,28 2,10 4,20 6,31l0 0 0 1c0,17 2,39 6,66 4,27 8,57 16,93l-7 2c-8,-37 -15,-66 -19,-93 -4,-27 -6,-50 -6,-68 -2,-10 -4,-20 -6,-29 -3,-10 -5,-20 -7,-29 -5,-18 -14,-33 -25,-46 -12,-13 -26,-26 -44,-33l1 -4z"/>
  <path class="fil0 str0" d="M605 154c4,11 9,20 12,28 2,9 4,16 4,23l0 0c0,8 0,15 0,23 1,8 1,16 2,25l5 125c3,23 2,42 -5,57 -9,13 -19,23 -35,30l-2 -3c14,-6 26,-19 31,-32 6,-13 7,-29 4,-50 -5,-32 -3,-90 -4,-125 0,-14 1,-50 -3,-64 -2,-8 -9,-24 -13,-34l4 -3z"/>
  <path class="fil0 str0" d="M536 507c15,1 28,6 38,13 10,8 17,19 23,33 4,10 10,19 16,27 7,9 14,16 21,23l0 0c35,35 63,64 85,90 21,25 36,45 44,61l-5 3c-8,-16 -22,-36 -43,-61 -22,-25 -50,-55 -84,-89 -8,-7 -15,-15 -22,-23 -6,-9 -12,-18 -17,-28l0 -1c-5,-13 -12,-23 -22,-30 -9,-7 -20,-12 -34,-13l0 -5z"/>
  <path class="fil0 str0" d="M254 675c-18,27 -34,56 -48,87 -14,31 -27,65 -37,100l-5 -1c11,-36 23,-70 37,-101 15,-32 31,-61 49,-88l4 3z"/>
  <path class="fil0 str0" d="M758 779c-18,-27 -38,-47 -59,-60 -22,-12 -46,-18 -72,-16l0 -5c27,-2 52,4 74,17 23,13 43,33 61,61l-4 3z"/>
  <path class="fil0 str0" d="M552 637c22,12 39,24 52,34 13,11 21,20 25,29l1 1 -1 2c-46,41 -84,86 -115,136 -30,50 -54,105 -70,164l-5 -1c16,-60 40,-115 71,-166 31,-49 69,-95 114,-136 -4,-7 -12,-15 -23,-25 -13,-10 -30,-21 -52,-34l3 -4z"/>
  <path class="fil0 str0" d="M500 650c36,-53 47,-99 34,-139l5 -2c13,42 2,90 -34,144l-5 -3z"/>
  <path class="fil0 str0" d="M287 579c-5,15 -8,28 -6,39 1,10 5,18 13,24 7,5 17,8 28,8 12,0 26,-2 41,-6 32,-10 62,-26 91,-50 28,-24 55,-54 81,-92l4 3c-26,38 -53,69 -82,93 -29,24 -60,41 -92,51l0 0c-16,5 -31,7 -43,6 -12,0 -23,-3 -31,-9l0 0c-9,-7 -14,-16 -16,-28 -1,-11 1,-25 8,-41l4 2z"/>
  <path class="fil0 str0" d="M355 567c-15,7 -30,11 -46,12 -15,2 -32,1 -48,-2l-1 -1 0 0c-10,-8 -19,-17 -28,-26 -8,-10 -15,-20 -22,-31 -15,-21 -27,-41 -34,-60 -8,-19 -12,-38 -12,-55l0 0c0,-82 5,-149 15,-201 10,-53 25,-92 45,-117l4 3c-19,24 -34,62 -43,115 -10,52 -16,119 -16,199 0,18 4,36 12,54 7,19 18,39 33,59l0 0c7,11 14,21 22,30 8,9 17,18 27,25 15,4 31,5 46,3 15,-1 30,-5 44,-12l2 5z"/>
  <path class="fil0 str0" d="M721 771c-23,-2 -47,3 -71,16 -24,13 -49,34 -75,62l-4 -3c26,-29 52,-50 76,-63 26,-14 50,-20 74,-17l0 5z"/>
  <path class="fil0 str0" d="M560 867c-26,32 -46,60 -60,85 -15,24 -24,45 -28,61l-5 -1c4,-17 13,-38 28,-63 15,-25 35,-53 61,-86l4 4z"/>
  <path class="fil0 str0" d="M559 513c11,-3 20,-9 29,-16 8,-7 15,-17 21,-28l5 2c-6,12 -14,22 -23,30 -9,8 -19,14 -30,17l-2 -5z"/>
  <path class="fil0 str0" d="M575 522c8,1 15,1 21,-1 6,-2 12,-5 16,-9l4 4c-5,5 -12,8 -18,10 -7,2 -15,3 -23,2l0 -6z"/>
  <path class="fil0 str0" d="M578 506c4,4 8,7 11,10 3,3 5,5 7,7l-5 3c-1,-2 -3,-4 -5,-6 -3,-3 -7,-6 -11,-9l3 -5z"/>
  <path class="fil0 str0" d="M589 498c4,3 8,5 11,7 3,2 5,4 5,6l-5 1c0,0 -1,-1 -3,-3 -3,-1 -6,-3 -11,-6l3 -5z"/>
  <path class="fil0 str0" d="M597 490c5,3 9,5 12,6 2,1 4,2 5,3l-3 4c-1,0 -2,-1 -5,-2 -3,-2 -7,-4 -11,-6l2 -5z"/>
  <path class="fil0 str0" d="M603 481c4,0 8,0 11,0 3,1 5,2 6,4l-5 2c0,0 -1,0 -2,-1 -2,0 -6,0 -10,1l0 -6z"/>
  <path class="fil0 str0" d="M534 504c-5,-58 -8,-103 -9,-134 -1,-32 0,-51 3,-56l4 2c-2,5 -3,23 -1,54 1,31 4,76 9,133l-6 1z"/>
  <path class="fil1 str0" d="M540 283c-1,16 -4,27 -10,32 -5,-1 -8,-12 -9,-31 -5,-4 -6,-14 -4,-31 -11,0 -23,-6 -34,-19 3,-1 8,-2 12,-5 -5,-2 -9,-7 -10,-14 3,2 6,2 8,1 -1,-3 -7,-8 -18,-15 2,1 3,0 6,-2 -9,-3 -15,-9 -19,-18 1,0 4,1 10,0 -1,1 -6,-2 -13,-8 0,0 4,1 10,1 -5,-2 -10,-8 -16,-17 4,2 11,4 19,4 -12,-3 -19,-10 -22,-19 6,3 10,4 14,3 -7,-2 -13,-9 -20,-23 3,1 6,1 10,0 -2,0 -5,-3 -8,-9 2,1 5,1 10,0 -5,-1 -11,-3 -19,-8 6,1 10,1 13,0 -7,-1 -14,-4 -21,-10 8,2 18,2 29,1 -12,0 -30,-4 -52,-11 -19,-4 -35,-9 -52,-2 -4,2 -13,4 -27,6 3,-3 5,-6 6,-10 -6,3 -13,5 -23,5 1,-1 3,-4 5,-8 -9,3 -18,13 -25,26 -3,-6 -26,-10 -36,-15 2,4 6,7 12,11 -7,1 -16,-3 -28,-13 0,3 2,7 4,11 -26,-5 -29,-21 -14,-39 6,-15 17,-23 32,-23 70,-27 129,-27 177,1 86,40 96,164 103,248z"/>
  <path class="fil0 str0" d="M540 283c0,8 -1,15 -3,20 -1,6 -3,10 -6,13l-1 0 0 0c-3,-1 -5,-4 -7,-9 -2,-6 -3,-13 -3,-22 -2,-3 -4,-7 -4,-12 -1,-5 -1,-11 0,-19 -6,0 -11,-2 -16,-5 -6,-3 -12,-8 -18,-15l-1 -1 2 0c3,0 6,-2 10,-4 -2,-1 -4,-3 -5,-5 -2,-2 -3,-5 -4,-9l0 -2 1 1c2,1 3,1 4,2 1,0 2,0 3,-1 -1,-1 -2,-3 -5,-5 -3,-2 -7,-5 -12,-8l-4 -2 4 1c1,0 2,0 2,-1 1,0 1,0 2,-1 -8,-3 -14,-9 -17,-18l-2 -3 3 2c0,0 2,1 4,1l0 0c-2,-2 -5,-4 -9,-8l1 -1 0 0c1,0 1,1 3,1 1,0 2,0 4,0 -2,-1 -3,-2 -5,-4 -3,-3 -6,-7 -9,-11l-1 -3 2 2c2,1 5,1 8,2 2,0 3,1 5,1 -9,-4 -14,-10 -16,-18l-1 -2 2 1c2,2 5,3 7,3 1,0 2,0 2,0 -2,-1 -4,-3 -7,-6 -3,-3 -6,-9 -10,-16l-1 -1 2 0c1,1 3,1 4,1 1,0 2,0 3,0 -2,-2 -4,-5 -6,-9l-1 -2 2 1c1,1 2,1 4,1l1 0c-1,-1 -2,-1 -4,-2 -3,-1 -6,-3 -10,-5l-3 -2 3 0c3,1 5,1 7,1l1 0c-2,-1 -4,-2 -5,-2 -4,-2 -8,-4 -11,-7l-3 -2 3 1c4,0 9,1 13,1 2,0 4,0 6,0 -4,-1 -8,-1 -13,-2 -8,-2 -18,-5 -30,-8 -9,-2 -17,-3 -26,-4 -8,0 -17,0 -25,1 -2,1 -5,2 -10,3 -4,1 -10,2 -17,4l-3 0 3 -2c1,-1 2,-2 3,-4 1,-1 1,-2 2,-3 -6,2 -13,4 -22,4l-1 0 1 -1c0,-1 1,-2 2,-3l1 -3c-3,1 -7,4 -10,8 -4,4 -8,10 -12,17l-1 1 -1 -1c-2,-4 -12,-8 -22,-11 -4,-1 -8,-2 -11,-3 1,1 2,2 3,3 2,1 4,3 7,5l2 1 -2 1c-4,0 -8,-1 -13,-3 -4,-2 -9,-5 -14,-9 0,1 1,2 1,3 1,2 2,4 3,6l1 2 -2 -1c-13,-4 -20,-9 -23,-16 -2,-7 1,-15 9,-24 3,-8 7,-14 12,-18 5,-4 12,-6 20,-6 35,-13 67,-20 97,-20 30,0 56,7 80,21 86,41 96,163 103,247 0,1 0,2 0,2zm-4 20c2,-5 2,-12 3,-20l0 -2c-7,-84 -18,-205 -102,-246l0 0c-24,-13 -51,-20 -80,-20 -29,0 -62,6 -97,19l0 1 0 0c-8,0 -14,1 -19,5 -5,4 -9,10 -12,17l0 1 0 0c-8,9 -10,16 -8,22 2,6 9,11 20,15 -1,-2 -2,-3 -2,-5 -1,-2 -2,-3 -1,-5l0 -2 1 2c5,4 10,8 15,10 3,1 6,2 9,2 -2,-1 -4,-3 -5,-4 -2,-2 -4,-4 -4,-6l-1 -1 2 0c3,2 8,3 13,5 9,3 19,6 22,10 4,-7 8,-12 12,-16 4,-5 8,-8 13,-10l2 0 -1 1c-1,2 -2,4 -3,5l-1 2c8,0 15,-2 20,-4l2 -1 -1 2c0,2 -1,3 -2,5 0,1 -1,2 -1,3 5,-1 10,-2 14,-3 4,-1 8,-2 10,-3l0 0c8,-2 17,-2 25,-2 9,1 18,2 27,4l0 0c11,4 21,6 30,8 9,2 16,3 22,3l12 0 -12 2c-5,0 -11,1 -16,1 -3,0 -6,-1 -9,-1 2,2 5,3 7,4 4,2 7,3 10,3l5 1 -5 1c-1,0 -3,0 -6,0 -1,0 -2,0 -3,0 2,2 5,3 7,4 3,1 6,2 8,2l6 1 -6 1c-2,0 -4,0 -6,0 -1,0 -2,0 -3,0 3,5 5,7 7,8l4 1 -4 0c-2,0 -4,1 -6,0 -1,0 -2,0 -3,0 3,6 6,11 10,14 3,4 6,6 9,7l3 1 -3 1c-2,0 -4,0 -6,0 -2,-1 -4,-2 -6,-3 2,9 9,14 20,17l8 2 -8 0c-4,0 -8,-1 -11,-1 -2,-1 -4,-1 -6,-2 3,4 5,6 7,9 3,2 5,5 7,6l3 2 -3 -1c-3,0 -5,0 -7,0 2,2 4,3 6,4 1,1 2,1 3,2l3 -1 -2 2c0,0 -1,0 -1,0 -3,0 -6,0 -7,0 3,8 9,14 17,16l1 1 -1 1c-1,1 -2,1 -3,2l0 0c4,3 8,5 10,7 3,3 5,5 6,6l0 1 0 0c-2,1 -3,1 -5,1 -1,0 -2,0 -3,-1 1,3 2,5 3,7 2,2 4,4 7,5l1 1 -1 1c-5,2 -8,4 -11,4 5,6 10,11 15,14 6,3 11,5 17,5l0 0 0 1c0,8 0,14 0,19 1,5 2,9 4,11l0 0 0 0c1,10 2,17 3,22 2,5 4,7 6,8 2,-2 4,-6 6,-11z"/>
  <path class="fil1 str0" d="M448 273c-7,-1 -13,-2 -17,-4 -47,-18 -91,-20 -132,-4 -16,7 -32,4 -50,-8 -24,-27 -82,-24 -120,-21 -5,46 7,94 55,110 24,7 44,4 58,-7 12,-11 20,-24 24,-38 27,-20 21,47 64,66 55,10 88,0 98,-55 3,-17 22,-26 55,-29 23,-3 35,-4 35,-4 -2,-5 -2,-9 -2,-12 -46,4 -68,6 -68,6zm-309 -25c36,-1 54,-1 56,0 98,6 67,121 -11,91 -36,-12 -48,-59 -45,-91zm168 83c-6,-11 -10,-31 -7,-56 32,-13 70,-14 113,0 42,80 -81,124 -106,56z"/>
  <path class="fil1 str0" d="M360 254c-16,1 -29,2 -39,5 3,-8 8,-12 15,-13 15,-10 29,-12 42,-6 15,0 26,3 35,10 -26,-3 -44,-1 -53,4z"/>
  <path class="fil0 str0" d="M360 255c-8,0 -15,1 -22,2 -6,0 -12,1 -17,3l-2 0 1 -2c1,-4 4,-7 6,-9 3,-2 6,-3 10,-4 7,-5 15,-8 22,-9 7,-1 14,0 21,3 7,0 13,1 19,2 6,2 11,4 16,8l3 2 -4 0c-13,-2 -24,-2 -33,-1 -8,1 -15,2 -19,5l-1 0 0 0zm-22 -1c7,0 14,-1 22,-1 4,-3 11,-4 20,-5 8,-1 18,-1 29,0 -3,-2 -7,-4 -11,-5 -6,-1 -12,-2 -20,-2l0 0 0 0c-6,-3 -13,-4 -20,-3 -7,1 -14,4 -21,9l0 0 0 0c-4,0 -7,2 -9,4 -2,1 -4,4 -5,6 4,-1 9,-2 15,-3z"/>
  <path class="fil1 str0" d="M202 237c7,1 12,1 16,2 -5,-8 -12,-11 -22,-10 4,3 6,6 6,8zm-15 68c1,2 7,1 5,-2 -3,-2 -6,-7 -3,-11 15,4 34,5 56,5 -10,-34 -75,-22 -58,8zm7 -16c-1,-3 13,-15 28,-5 2,3 0,6 -2,7 -7,4 -23,0 -26,-2z"/>
  <path class="fil0 str0" d="M253 329c-2,6 -4,11 -6,15 -2,5 -4,9 -5,12l-2 0c2,-4 3,-8 5,-13 2,-4 4,-9 6,-14l2 0z"/>
  <path class="fil0 str0" d="M230 369c-28,6 16,63 39,50l1 3c-26,19 -81,-58 -40,-55l0 2z"/>
  <path class="fil0 str0" d="M220 392c-7,8 -12,15 -14,23 -2,8 -1,16 2,24 8,8 11,28 10,58l0 0c0,-15 -2,-43 -12,-56 -6,-7 -7,-18 -5,-27 2,-8 9,-17 17,-24l2 2z"/>
  <path class="fil0 str0" d="M283 386c7,-7 15,-13 24,-12 8,0 17,7 20,15l0 0c2,5 2,9 0,13 -2,3 -2,6 -7,7 -2,0 -5,1 -7,2 -1,1 -1,1 -1,2l-3 0c3,-8 12,-5 15,-13 2,-14 -20,-28 -41,-11l0 -3z"/>
  <path class="fil0 str0" d="M328 393c7,9 14,18 22,28 7,10 15,20 23,31l0 0c2,7 4,14 4,21 0,7 -2,14 -5,22 -2,7 -3,14 -2,21 0,6 1,12 4,17l-2 1c-3,-5 -4,-11 -5,-18 0,-7 1,-14 3,-22l0 0c3,-7 4,-14 5,-21 0,-7 -2,-14 -4,-20 -8,-11 -15,-21 -23,-31 -7,-9 -15,-19 -22,-28l2 -1z"/>
  <path class="fil0 str0" d="M207 439c1,-2 3,-3 4,-3 2,0 3,1 5,2l-1 2c-1,-1 -3,-2 -4,-2 -1,0 -2,1 -3,2l-1 -1z"/>
  <path class="fil0 str0" d="M216 438c43,28 95,33 157,16l0 2c-62,17 -115,12 -158,-16l1 -2z"/>
  <path class="fil0 str0" d="M231 447c1,6 1,10 2,14 0,4 1,7 2,9l-2 1c-1,-2 -2,-6 -2,-9 -1,-4 -1,-9 -2,-14l2 -1z"/>
  <path class="fil0 str0" d="M227 461c5,8 13,14 24,18 11,4 26,7 44,7 22,-1 38,-3 50,-8 11,-5 18,-12 20,-21l2 0c-2,10 -9,17 -21,23 -12,5 -29,7 -51,8l0 0c-18,0 -33,-3 -45,-7 -12,-4 -20,-10 -25,-19l2 -1z"/>
  <path class="fil0 str0" d="M348 477c0,-3 0,-6 0,-9 0,-2 0,-5 0,-7l2 0c0,2 0,5 0,7 0,3 0,6 0,9l-2 0z"/>
  <path class="fil0 str0" d="M533 465c14,-22 22,-36 25,-44l2 1c-3,7 -11,22 -25,44l-2 -1z"/>
  <path class="fil0 str0" d="M544 447c9,-2 16,-5 22,-9 6,-5 11,-10 15,-16l0 -1c2,-3 4,-8 5,-14 1,-6 2,-13 2,-21l2 0c0,8 -1,15 -2,21 -1,6 -3,11 -5,16 -4,6 -9,12 -15,16 -7,5 -14,8 -23,10l-1 -2z"/>
  <path class="fil0 str0" d="M569 450c1,2 2,4 2,7 1,2 0,4 0,7l0 0 0 0c-2,3 -4,7 -5,12 -1,5 -2,12 -2,19l0 0 0 0c-2,4 -4,7 -7,9 -3,3 -6,6 -11,8l-1 -2c5,-2 8,-4 11,-7 2,-3 4,-5 6,-8 0,-8 1,-14 2,-19 1,-6 3,-10 5,-13 0,-2 0,-4 0,-6 0,-2 -1,-4 -2,-5l2 -2z"/>
  <path class="fil0 str0" d="M552 445c4,5 7,9 9,12 3,4 6,7 7,11l-1 1c-2,-3 -5,-7 -7,-10 -3,-4 -6,-8 -10,-12l2 -2z"/>
  <path class="fil0 str0" d="M542 453c9,8 17,17 24,25l-2 2c-7,-9 -15,-17 -24,-25l2 -2z"/>
  <path class="fil0 str0" d="M536 463c11,12 20,21 27,26l-1 2c-7,-6 -16,-15 -28,-27l2 -1z"/>
  <path class="fil0 str0" d="M559 501c-3,-4 -6,-7 -9,-10 -3,-3 -5,-5 -8,-8l1 -1c3,2 6,4 9,7 3,3 5,7 8,11l-1 1z"/>
  <path class="fil0 str0" d="M534 460c-31,60 -65,104 -100,134 -36,31 -74,46 -114,47l0 -3c40,0 77,-15 113,-45 35,-30 68,-75 99,-134l2 1z"/>
  <path class="fil0 str0" d="M532 449c-2,-1 -4,-1 -6,-1 -1,0 -2,1 -2,2 -6,12 -12,21 -16,29 -5,8 -10,15 -14,19l-1 -1c4,-5 8,-11 13,-19 5,-8 10,-17 16,-29 0,-2 2,-2 4,-3 2,0 4,0 7,1l-1 2z"/>
  <path class="fil2 str1" d="M248 901c53,-37 101,-86 142,-149 76,-101 108,-153 112,-173"/>
  <path class="fil1 str2" d="M289 414c2,-7 8,-11 18,-14 -9,-3 -21,-1 -29,13 -1,5 6,6 11,1z"/>
  <path class="fil0 str0" d="M410 317c-5,5 -12,8 -20,9 -8,1 -17,1 -27,-2l0 -4c10,3 19,3 26,2 7,-1 13,-4 18,-9l3 4z"/>
  <path class="fil0 str0" d="M245 310c-4,1 -9,2 -14,2 -5,1 -11,1 -18,0l1 -4c6,1 11,1 16,0 5,0 10,-1 13,-2l2 4z"/>
  <path class="fil1 str0" d="M366 309c-9,-1 -21,-2 -36,-4 11,-12 25,-21 47,-19 30,3 37,25 26,21 -1,-1 -2,-3 -2,-5 -10,6 -22,8 -35,7zm-22 -9c4,-7 18,-12 32,-9 0,2 2,9 -2,13 -11,0 -25,-1 -30,-4z"/>
  <path class="fil2 str3" d="M381 737c-8,0 -18,2 -28,5"/>
  <path class="fil2 str3" d="M375 746c-11,5 -22,10 -32,16"/>
  <path class="fil2 str3" d="M356 770c-10,3 -19,7 -27,11"/>
  <path class="fil2 str3" d="M336 788c-7,4 -13,8 -17,12"/>
  <path class="fil2 str3" d="M317 811c-5,3 -8,6 -10,9"/>
  <path class="fil2 str3" d="M168 888c10,2 16,5 19,9"/>
  <path class="fil2 str3" d="M171 879c8,1 14,3 19,7"/>
  <path class="fil2 str3" d="M187 871c-2,-3 -6,-5 -10,-6"/>
  <ellipse class="fil1 str3" cx="190" cy="847" rx="4" ry="3"/>
  <path class="fil2 str4" d="M250 668c-61,124 -116,248 -95,269 17,18 96,-45 262,-231"/>
  <line class="fil2 str4" x1="157" y1="942" x2="140" y2= "1044" />
  <line class="fil2 str4" x1="120" y1="970" x2="182" y2= "981" />
  <path class="fil1 str0" d="M1186 804c-46,10 -35,74 -35,122 0,24 -3,52 8,70 9,18 33,26 59,20 45,-11 34,-78 34,-122 0,-23 2,-52 -8,-70 -10,-18 -33,-26 -58,-20zm9 20c-30,4 -22,54 -22,93 0,34 -9,87 35,79 28,-5 21,-61 21,-93 0,-38 8,-86 -34,-79z"/>
  <path class="fil1 str0" d="M985 731l23 1c2,-32 4,-63 6,-95l6 -93c10,1 6,-4 9,18 4,31 19,161 23,169l32 1c2,-20 23,-183 26,-188 8,0 7,-5 8,16l9 171 23 1 -14 -208 -44 0c-5,12 -11,75 -14,92 -3,27 -4,71 -11,95 -4,-31 -6,-62 -10,-93 -4,-30 -10,-63 -12,-93l-46 -1 -14 207z"/>
  <path class="fil1 str0" d="M871 731l22 1 0 -68 18 0 33 67 25 1 -34 -72c11,-9 23,-13 30,-36 8,-27 9,-83 -30,-96 -14,-5 -48,-6 -64,-3l0 206zm22 -87c38,0 52,-9 53,-48 0,-45 -9,-51 -53,-51l0 99z"/>
  <path class="fil1 str0" d="M1460 1013l23 1 6 -51c8,0 16,0 24,0 4,0 8,-1 12,-1 14,1 2,0 10,2 1,0 2,0 2,1l6 49 23 0c-2,-25 -23,-199 -28,-208l-51 0 -27 207zm32 -71l42 0 -14 -116 -14 0 -14 116z"/>
  <path class="fil1 str0" d="M1161 732l23 0 7 -51 48 0 6 51 23 0 -27 -208 -52 0 -28 208zm32 -72l43 0 -14 -115 -14 -1 -15 116z"/>
  <path class="fil1 str0" d="M804 1014l23 0 7 -51 48 0 6 51 23 0 -27 -207c-9,-3 -42,-2 -52,0l-28 207zm32 -72l43 0 -14 -116 -14 0 -15 116z"/>
  <path class="fil1 str0" d="M1280 1014l22 0c1,-34 1,-108 -1,-142 -1,-12 -5,-36 -1,-44 6,2 4,1 6,9 7,33 38,166 44,177l36 0 0 -208 -22 -1 2 164c1,6 2,14 0,20 0,1 -1,1 -1,2 0,0 0,1 0,1 -6,-5 -5,-11 -7,-22 -2,-8 -3,-15 -5,-23l-24 -94c-3,-13 -7,-35 -12,-47l-37 -1 0 209z"/>
  <path class="fil1 str0" d="M931 1014l21 0c0,-45 2,-98 -1,-142 0,-11 -5,-35 0,-44 6,2 4,4 7,21l18 71c2,8 20,86 25,94l36 0 -1 -209 -21 1 2 163c0,4 0,8 0,12 0,1 0,5 0,5l-1 3c0,1 0,1 0,2 0,0 -1,1 -1,1 -5,-5 -10,-38 -12,-45 -9,-45 -28,-98 -36,-141l-36 -1 0 209z"/>
  <path class="fil1 str0" d="M1448 292c-18,4 -24,15 -27,34 -3,20 -3,95 6,111 7,14 26,18 43,15 35,-8 27,-57 27,-94 0,-38 -1,-77 -49,-66zm2 16c-19,7 -12,52 -12,74 0,22 -4,67 30,53 18,-7 12,-54 12,-73 0,-23 4,-67 -30,-54z"/>
  <path class="fil1 str0" d="M1009 292c-36,8 -28,57 -28,93 0,18 -1,38 7,52 7,13 25,19 43,15 35,-8 27,-56 27,-94 0,-38 -1,-76 -49,-66zm2 16c-19,7 -12,52 -12,74 0,23 -4,66 30,53 19,-7 12,-54 12,-73 0,-22 4,-68 -30,-54z"/>
  <path class="fil1 str0" d="M1328 450c55,1 76,-2 77,-79 0,-85 -29,-77 -76,-78l-1 157zm18 -16c40,3 41,-25 41,-61 1,-38 1,-67 -41,-64l0 125z"/>
  <path class="fil1 str0" d="M1519 450l17 0 0 -51 15 0 22 51 19 0 -26 -54c12,-11 16,-8 23,-28 4,-12 4,-32 1,-45 -9,-33 -36,-30 -70,-30l-1 157zm17 -67c29,1 38,-7 38,-37 1,-32 -7,-37 -37,-37l-1 74z"/>
  <path class="fil1 str0" d="M802 450l18 -1 4 -38 35 0 6 39 17 0 -20 -157 -39 0 -21 157zm25 -55l31 1 -11 -87 -9 0c-1,8 -10,72 -11,86z"/>
  <path class="fil1 str0" d="M1064 224l17 0 5 -39c43,0 35,-2 37,7l4 31 17 1 -20 -156 -40 -1 -20 157zm24 -55l32 0 -11 -86 -9 0 -12 86z"/>
  <path class="fil1 str0" d="M1603 449l17 1 5 -39 35 0 6 38 17 1 -21 -157 -38 0 -21 156zm24 -53l32 0 -11 -87 -8 0c-1,6 -13,74 -13,87z"/>
  <path class="fil1 str0" d="M911 69l-21 155 17 0 5 -39 36 0 5 39 17 0 -20 -156c-5,-1 -33,-2 -39,1zm3 101l32 0 -9 -73c-1,-13 1,-15 -12,-14l-11 87z"/>
  <polygon class="fil1 str0" points="1049,827 1086,827 1086,1014 1109,1014 1109,827 1146,827 1147,806 1048,806 "/>
  <polygon class="fil1 str0" points="1149,450 1166,450 1166,387 1206,387 1205,450 1223,450 1223,293 1206,293 1205,371 1166,372 1166,293 1149,293 "/>
  <path class="fil1 str0" d="M997 178l-16 0c-1,17 0,31 10,40 8,9 26,11 40,7 28,-9 28,-49 10,-68 -16,-17 -44,-23 -42,-57 0,-17 14,-27 28,-17 9,6 6,28 8,42l14 -1c5,-32 0,-61 -36,-60 -38,2 -36,46 -27,64 12,23 44,33 49,53 4,17 -1,30 -18,30 -21,0 -20,-13 -20,-33z"/>
  <path class="fil1 str0" d="M962 450l1 -15c-58,-4 -52,9 -52,-91 0,-9 0,-25 4,-32 5,-7 20,-9 27,-2 9,10 5,51 6,66l15 0c2,-26 7,-71 -14,-82 -14,-6 -53,-12 -55,34 -1,19 -2,78 1,95 7,31 36,29 67,27z"/>
  <path class="fil1 str0" d="M877 224l0 -15c-59,-1 -52,2 -52,-91 0,-10 0,-26 5,-32 4,-7 20,-8 26,-2 10,8 6,50 6,66l15 0c2,-27 7,-70 -14,-82 -16,-8 -53,-9 -55,34 -1,19 -2,77 2,94 6,31 34,32 67,28z"/>
  <polygon class="fil1 str0" points="1417,1013 1440,1014 1440,806 1417,806 "/>
  <polygon class="fil1 str0" points="1248,449 1310,450 1310,434 1266,434 1265,387 1302,387 1302,371 1265,371 1265,309 1310,309 1310,293 1248,293 "/>
  <polygon class="fil1 str0" points="816,732 839,732 839,524 816,524 "/>
  <polygon class="fil1 str0" points="1080,449 1137,450 1137,434 1098,434 1097,293 1080,293 "/>
  <path class="fil1 str0" d="M1176 504l20 0 0 -16c19,0 15,18 38,16 16,-2 20,-18 20,-35l-20 0 0 16c-19,0 -16,-19 -38,-16 -15,3 -22,18 -20,35z"/>
  <path class="fil1 str0" d="M1166 788l21 0 9 -16c6,-8 -1,-3 7,-5 7,16 10,21 19,22 3,0 10,-1 14,-1 -4,-11 -17,-29 -23,-38 -21,0 -22,-5 -32,10 -5,8 -13,19 -15,28z"/>
 </g>
</svg>
